<!-- Generated by IcoMoon.io -->
<svg version="1.1" xmlns="http://www.w3.org/2000/svg" width="462" height="1024" viewBox="0 0 462 1024">
<title>Mask-group-1</title>
<g id="icomoon-ignore">
</g>
<path fill="none" stroke-linejoin="miter" stroke-linecap="butt" stroke-miterlimit="4" stroke-width="8.1109" stroke="#000" d="M161.201 44.61c-28.388 17.033-32.106 29.402-30.416 33.457 13.786 9.733 52.383-14.194 69.958-27.374l-7.096 335.588-67.929 59.818c0 0-33.457-22.102-57.79-9.125s-48.665 47.651-33.457 83.137c0 0 20.285-28.388 24.341-32.444s22.305-11.152 22.305-11.152c0 0 48.319 204.8 44.602 297.061-24.333-107.875-91.248-71.309-121.663-39.541 65.698-31.632 94.965 13.18 101.386 39.541l-7.097 80.095c-6.489-50.288-47.644-39.541-69.949-20.277-2.366 3.042-15.208 21.697-15.208 39.541 15.208-9.125 41.559-29.402 44.601-24.333 2.433 4.055 24.67 77.392 35.485 113.552l201.758 56.776c54.343-16.222 90.911-92.6 102.4-128.76 2.028-6.083 9.733-19.466 24.333-24.333-15.411-9.733 17.236-106.794 35.485-154.107l-104.428-144.982-24.333 12.166c2.028-14.869 6.489-47.449 8.111-58.804s-23.317-74.012-49.677-111.525l-28.388-12.166-42.584-10.139c0-83.137-11.688-154.403 3.52-154.403s31.965-17.953 37.034-17.953c4.055 0-25.347-3.717-40.554-7.097v-140.927c3.042-17.911 4.258-54.951-15.207-59.818-19.263 10.139-4.057 17.236-39.542 38.527z"></path>
<path fill="none" stroke-linejoin="miter" stroke-linecap="butt" stroke-miterlimit="4" stroke-width="8.1109" stroke="#000" d="M153.093 471.446l47.651-45.624v240.285l-11.152 13.18-13.18-117.608-23.319-90.234z"></path>
<path fill="none" stroke-linejoin="miter" stroke-linecap="butt" stroke-miterlimit="4" stroke-width="8.1109" stroke="#000" d="M217.98 422.78v229.133l76.040-46.638v-100.372l-32.444-64.887-43.596-17.236z"></path>
<path fill="none" stroke-linejoin="miter" stroke-linecap="butt" stroke-miterlimit="4" stroke-width="8.1109" stroke="#000" d="M220.008 671.176l103.414-60.832c22.305 28.727 68.131 89.625 72.998 103.414s0 53.735 0 62.859c0 9.125-40.149 134.641-54.749 145.996l-44.61 52.721-77.053-24.333v-89.22c0 0 12.166 1.014 20.277 0s15.208-7.097 18.25-10.139c3.042-3.042 8.111-7.097 11.152-17.236s5.069-21.291 5.069-21.291l-54.749 24.333v-30.416l26.36-13.18c0 0 27.374-4.055 35.485-8.111s24.333-33.457 24.333-33.457l-86.178 33.457v-114.566z"></path>
<path fill="none" stroke-linejoin="miter" stroke-linecap="butt" stroke-miterlimit="4" stroke-width="8.1109" stroke="#000" d="M161.204 817.172l24.333-93.275 16.222-35.485v108.483l-40.554 20.277z"></path>
<path fill="none" stroke-linejoin="miter" stroke-linecap="butt" stroke-miterlimit="4" stroke-width="8.1109" stroke="#000" d="M137.885 926.669l65.901 20.277v-129.774l-42.582 14.194-23.319 95.303z"></path>
</svg>
