<svg aria-hidden="true" style="position: absolute; width: 0; height: 0; overflow: hidden;" version="1.1" xmlns="http://www.w3.org/2000/svg" xmlns:xlink="http://www.w3.org/1999/xlink">
<defs>
<symbol id="icon-Mask-group-6" viewBox="0 0 14 32">
<path fill="none" stroke="#fff" style="stroke: var(--color1, #fff)" stroke-linejoin="miter" stroke-linecap="butt" stroke-miterlimit="4" stroke-width="0.2535" d="M5.038 1.394c-0.887 0.532-1.003 0.919-0.95 1.046 0.431 0.304 1.637-0.444 2.186-0.855l-0.222 10.487-2.123 1.869c0 0-1.046-0.691-1.806-0.285s-1.521 1.489-1.046 2.598c0 0 0.634-0.887 0.761-1.014s0.697-0.348 0.697-0.348c0 0 1.51 6.4 1.394 9.283-0.76-3.371-2.852-2.228-3.802-1.236 2.053-0.988 2.968 0.412 3.168 1.236l-0.222 2.503c-0.203-1.572-1.489-1.236-2.186-0.634-0.074 0.095-0.475 0.678-0.475 1.236 0.475-0.285 1.299-0.919 1.394-0.76 0.076 0.127 0.771 2.418 1.109 3.549l6.305 1.774c1.698-0.507 2.841-2.894 3.2-4.024 0.063-0.19 0.304-0.608 0.76-0.76-0.482-0.304 0.539-3.337 1.109-4.816l-3.263-4.531-0.76 0.38c0.063-0.465 0.203-1.483 0.253-1.838s-0.729-2.313-1.552-3.485l-0.887-0.38-1.331-0.317c0-2.598-0.365-4.825 0.11-4.825s0.999-0.561 1.157-0.561c0.127 0-0.792-0.116-1.267-0.222v-4.404c0.095-0.56 0.133-1.717-0.475-1.869-0.602 0.317-0.127 0.539-1.236 1.204z"></path>
<path fill="none" stroke="#fff" style="stroke: var(--color1, #fff)" stroke-linejoin="miter" stroke-linecap="butt" stroke-miterlimit="4" stroke-width="0.2535" d="M4.784 14.733l1.489-1.426v7.509l-0.348 0.412-0.412-3.675-0.729-2.82z"></path>
<path fill="none" stroke="#fff" style="stroke: var(--color1, #fff)" stroke-linejoin="miter" stroke-linecap="butt" stroke-miterlimit="4" stroke-width="0.2535" d="M6.812 13.212v7.16l2.376-1.457v-3.137l-1.014-2.028-1.362-0.539z"></path>
<path fill="none" stroke="#fff" style="stroke: var(--color1, #fff)" stroke-linejoin="miter" stroke-linecap="butt" stroke-miterlimit="4" stroke-width="0.2535" d="M6.875 20.974l3.232-1.901c0.697 0.898 2.129 2.801 2.281 3.232s0 1.679 0 1.964c0 0.285-1.255 4.208-1.711 4.562l-1.394 1.648-2.408-0.76v-2.788c0 0 0.38 0.032 0.634 0s0.475-0.222 0.57-0.317c0.095-0.095 0.253-0.222 0.348-0.539s0.158-0.665 0.158-0.665l-1.711 0.76v-0.951l0.824-0.412c0 0 0.855-0.127 1.109-0.253s0.76-1.046 0.76-1.046l-2.693 1.046v-3.58z"></path>
<path fill="none" stroke="#fff" style="stroke: var(--color1, #fff)" stroke-linejoin="miter" stroke-linecap="butt" stroke-miterlimit="4" stroke-width="0.2535" d="M5.038 25.537l0.76-2.915 0.507-1.109v3.39l-1.267 0.634z"></path>
<path fill="none" stroke="#fff" style="stroke: var(--color1, #fff)" stroke-linejoin="miter" stroke-linecap="butt" stroke-miterlimit="4" stroke-width="0.2535" d="M4.309 28.958l2.059 0.634v-4.055l-1.331 0.444-0.729 2.978z"></path>
</symbol>
</defs>
</svg>
