<svg aria-hidden="true" style="position: absolute; width: 0; height: 0; overflow: hidden;" version="1.1" xmlns="http://www.w3.org/2000/svg" xmlns:xlink="http://www.w3.org/1999/xlink">
<defs>
<symbol id="icon-instagram-2-2" viewBox="0 0 32 32">
<path d="M31.969 9.408c-0.075-1.7-0.35-2.869-0.744-3.882-0.406-1.075-1.031-2.038-1.85-2.838-0.8-0.813-1.769-1.444-2.832-1.844-1.019-0.394-2.182-0.669-3.882-0.744-1.713-0.081-2.257-0.1-6.601-0.1s-4.888 0.019-6.595 0.094c-1.7 0.075-2.869 0.35-3.882 0.744-1.075 0.406-2.038 1.031-2.838 1.85-0.813 0.8-1.444 1.769-1.844 2.832-0.394 1.019-0.669 2.182-0.744 3.882-0.081 1.713-0.1 2.257-0.1 6.601s0.019 4.888 0.094 6.595c0.075 1.7 0.35 2.869 0.744 3.882 0.406 1.075 1.038 2.038 1.85 2.838 0.8 0.813 1.769 1.444 2.832 1.844 1.019 0.394 2.182 0.669 3.882 0.744 1.706 0.075 2.25 0.094 6.595 0.094s4.888-0.019 6.595-0.094c1.7-0.075 2.869-0.35 3.882-0.744 2.151-0.832 3.851-2.532 4.682-4.682 0.394-1.019 0.669-2.182 0.744-3.882 0.075-1.707 0.094-2.25 0.094-6.595s-0.006-4.888-0.081-6.595zM29.087 22.473c-0.069 1.563-0.331 2.407-0.55 2.969-0.538 1.394-1.644 2.501-3.038 3.038-0.563 0.219-1.413 0.481-2.969 0.55-1.688 0.075-2.194 0.094-6.464 0.094s-4.782-0.019-6.464-0.094c-1.563-0.069-2.407-0.331-2.969-0.55-0.694-0.256-1.325-0.663-1.838-1.194-0.531-0.519-0.938-1.144-1.194-1.838-0.219-0.563-0.481-1.413-0.55-2.969-0.075-1.688-0.094-2.194-0.094-6.464s0.019-4.782 0.094-6.464c0.069-1.563 0.331-2.407 0.55-2.969 0.256-0.694 0.663-1.325 1.2-1.838 0.519-0.531 1.144-0.938 1.838-1.194 0.563-0.219 1.413-0.481 2.969-0.55 1.688-0.075 2.194-0.094 6.464-0.094 4.276 0 4.782 0.019 6.464 0.094 1.563 0.069 2.407 0.331 2.969 0.55 0.694 0.256 1.325 0.662 1.838 1.194 0.531 0.519 0.938 1.144 1.194 1.838 0.219 0.563 0.481 1.413 0.55 2.969 0.075 1.688 0.094 2.194 0.094 6.464s-0.019 4.77-0.094 6.458z"></path>
<path d="M16.059 7.783c-4.538 0-8.22 3.682-8.22 8.22s3.682 8.22 8.22 8.22c4.539 0 8.22-3.682 8.22-8.22s-3.682-8.22-8.22-8.22zM16.059 21.335c-2.944 0-5.332-2.388-5.332-5.332s2.388-5.332 5.332-5.332c2.944 0 5.332 2.388 5.332 5.332s-2.388 5.332-5.332 5.332z"></path>
<path d="M26.524 7.458c0 1.060-0.859 1.919-1.919 1.919s-1.919-0.859-1.919-1.919c0-1.060 0.859-1.919 1.919-1.919s1.919 0.859 1.919 1.919z"></path>
</symbol>
<symbol id="icon-facebook-1-1" viewBox="0 0 32 32">
<path d="M21.329 5.313h2.921v-5.088c-0.504-0.069-2.237-0.225-4.256-0.225-4.212 0-7.097 2.649-7.097 7.519v4.481h-4.648v5.688h4.648v14.312h5.699v-14.311h4.46l0.708-5.688h-5.169v-3.919c0.001-1.644 0.444-2.769 2.735-2.769z"></path>
</symbol>
<symbol id="icon-Mask-group-1" viewBox="0 0 14 32">
<path stroke-linejoin="white" stroke-linecap="white" stroke-miterlimit="4" stroke-width="0.2535" d="M5.038 1.394c-0.887 0.532-1.003 0.919-0.95 1.046 0.431 0.304 1.637-0.444 2.186-0.855l-0.222 10.487-2.123 1.869c0 0-1.046-0.691-1.806-0.285s-1.521 1.489-1.046 2.598c0 0 0.634-0.887 0.761-1.014s0.697-0.348 0.697-0.348c0 0 1.51 6.4 1.394 9.283-0.76-3.371-2.852-2.228-3.802-1.236 2.053-0.988 2.968 0.412 3.168 1.236l-0.222 2.503c-0.203-1.572-1.489-1.236-2.186-0.634-0.074 0.095-0.475 0.678-0.475 1.236 0.475-0.285 1.299-0.919 1.394-0.76 0.076 0.127 0.771 2.418 1.109 3.549l6.305 1.774c1.698-0.507 2.841-2.894 3.2-4.024 0.063-0.19 0.304-0.608 0.76-0.76-0.482-0.304 0.539-3.337 1.109-4.816l-3.263-4.531-0.76 0.38c0.063-0.465 0.203-1.483 0.253-1.838s-0.729-2.313-1.552-3.485l-0.887-0.38-1.331-0.317c0-2.598-0.365-4.825 0.11-4.825s0.999-0.561 1.157-0.561c0.127 0-0.792-0.116-1.267-0.222v-4.404c0.095-0.56 0.133-1.717-0.475-1.869-0.602 0.317-0.127 0.539-1.236 1.204z"></path>
<path stroke-linejoin="white" stroke-linecap="white" stroke-miterlimit="4" stroke-width="0.2535" d="M4.784 14.733l1.489-1.426v7.509l-0.348 0.412-0.412-3.675-0.729-2.82z"></path>
<path stroke-linejoin="white" stroke-linecap="white" stroke-miterlimit="4" stroke-width="0.2535" d="M6.812 13.212v7.16l2.376-1.457v-3.137l-1.014-2.028-1.362-0.539z"></path>
<path stroke-linejoin="white" stroke-linecap="white" stroke-miterlimit="4" stroke-width="0.2535" d="M6.875 20.974l3.232-1.901c0.697 0.898 2.129 2.801 2.281 3.232s0 1.679 0 1.964c0 0.285-1.255 4.208-1.711 4.562l-1.394 1.648-2.408-0.76v-2.788c0 0 0.38 0.032 0.634 0s0.475-0.222 0.57-0.317c0.095-0.095 0.253-0.222 0.348-0.539s0.158-0.665 0.158-0.665l-1.711 0.76v-0.951l0.824-0.412c0 0 0.855-0.127 1.109-0.253s0.76-1.046 0.76-1.046l-2.693 1.046v-3.58z"></path>
<path stroke-linejoin="white" stroke-linecap="white" stroke-miterlimit="4" stroke-width="0.2535" d="M5.038 25.537l0.76-2.915 0.507-1.109v3.39l-1.267 0.634z"></path>
<path stroke-linejoin="white" stroke-linecap="white" stroke-miterlimit="4" stroke-width="0.2535" d="M4.309 28.958l2.059 0.634v-4.055l-1.331 0.444-0.729 2.978z"></path>
</symbol>
</defs>
</svg>
